HIERARCHY
ROOT mixamorig:Hips
{
	OFFSET -0.000008 104.274872 1.554316
	CHANNELS 6 Xposition Yposition Zposition Xrotation Yrotation Zrotation
	JOINT mixamorig:Spine
	{
		OFFSET -0.000005 10.181595 0.131519
		CHANNELS 6 Xposition Yposition Zposition Xrotation Yrotation Zrotation
		JOINT mixamorig:Spine1
		{
			OFFSET -0.000000 9.893959 -1.470707
			CHANNELS 6 Xposition Yposition Zposition Xrotation Yrotation Zrotation
			JOINT mixamorig:Spine2
			{
				OFFSET -0.000000 9.220757 -1.370641
				CHANNELS 6 Xposition Yposition Zposition Xrotation Yrotation Zrotation
				JOINT mixamorig:Neck
				{
					OFFSET 0.000001 16.740417 -2.049036
					CHANNELS 6 Xposition Yposition Zposition Xrotation Yrotation Zrotation
					JOINT mixamorig:Head
					{
						OFFSET 0.000000 9.617874 1.685006
						CHANNELS 6 Xposition Yposition Zposition Xrotation Yrotation Zrotation
						JOINT mixamorig:HeadTop_End
						{
							OFFSET 0.000002 22.037354 7.501101
							CHANNELS 6 Xposition Yposition Zposition Xrotation Yrotation Zrotation
							End Site
							{
								OFFSET 0.000168 2310.654297 -282.823242
							}
						}
					}
				}
				JOINT mixamorig:RightShoulder
				{
					OFFSET -4.569970 11.014908 -2.160885
					CHANNELS 6 Xposition Yposition Zposition Xrotation Yrotation Zrotation
					JOINT mixamorig:RightArm
					{
						OFFSET -10.592851 -0.524811 -2.232101
						CHANNELS 6 Xposition Yposition Zposition Xrotation Yrotation Zrotation
						JOINT mixamorig:RightForeArm
						{
							OFFSET -27.841511 0.000031 -0.000004
							CHANNELS 6 Xposition Yposition Zposition Xrotation Yrotation Zrotation
							JOINT mixamorig:RightHand
							{
								OFFSET -28.328831 -0.000015 0.000015
								CHANNELS 6 Xposition Yposition Zposition Xrotation Yrotation Zrotation
								JOINT mixamorig:RightHandThumb1
								{
									OFFSET -2.464806 -1.573990 2.681852
									CHANNELS 6 Xposition Yposition Zposition Xrotation Yrotation Zrotation
									JOINT mixamorig:RightHandThumb2
									{
										OFFSET -3.215179 -1.872803 1.924282
										CHANNELS 6 Xposition Yposition Zposition Xrotation Yrotation Zrotation
										JOINT mixamorig:RightHandThumb3
										{
											OFFSET -2.654831 -1.527969 1.512609
											CHANNELS 6 Xposition Yposition Zposition Xrotation Yrotation Zrotation
											JOINT mixamorig:RightHandThumb4
											{
												OFFSET -2.018814 -1.152008 1.108052
												CHANNELS 6 Xposition Yposition Zposition Xrotation Yrotation Zrotation
												End Site
												{
													OFFSET -188.809540 -114.533607 132.431396
												}
											}
										}
									}
								}
								JOINT mixamorig:RightHandIndex1
								{
									OFFSET -9.108284 -0.517868 2.259835
									CHANNELS 6 Xposition Yposition Zposition Xrotation Yrotation Zrotation
									JOINT mixamorig:RightHandIndex2
									{
										OFFSET -3.699989 0.000000 0.001215
										CHANNELS 6 Xposition Yposition Zposition Xrotation Yrotation Zrotation
										JOINT mixamorig:RightHandIndex3
										{
											OFFSET -2.850006 0.000031 -0.000522
											CHANNELS 6 Xposition Yposition Zposition Xrotation Yrotation Zrotation
											JOINT mixamorig:RightHandIndex4
											{
												OFFSET -2.772186 -0.000015 -0.000020
												CHANNELS 6 Xposition Yposition Zposition Xrotation Yrotation Zrotation
												End Site
												{
													OFFSET -277.218445 0.000000 -0.050231
												}
											}
										}
									}
								}
								JOINT mixamorig:RightHandMiddle1
								{
									OFFSET -9.532516 -0.000031 -0.000023
									CHANNELS 6 Xposition Yposition Zposition Xrotation Yrotation Zrotation
									JOINT mixamorig:RightHandMiddle2
									{
										OFFSET -3.700005 -0.000015 0.003713
										CHANNELS 6 Xposition Yposition Zposition Xrotation Yrotation Zrotation
										JOINT mixamorig:RightHandMiddle3
										{
											OFFSET -2.949974 0.000015 -0.002054
											CHANNELS 6 Xposition Yposition Zposition Xrotation Yrotation Zrotation
											JOINT mixamorig:RightHandMiddle4
											{
												OFFSET -2.946640 0.000000 -0.000156
												CHANNELS 6 Xposition Yposition Zposition Xrotation Yrotation Zrotation
												End Site
												{
													OFFSET -294.664337 0.000000 -0.113670
												}
											}
										}
									}
								}
								JOINT mixamorig:RightHandRing1
								{
									OFFSET -9.103600 -0.043076 -1.865134
									CHANNELS 6 Xposition Yposition Zposition Xrotation Yrotation Zrotation
									JOINT mixamorig:RightHandRing2
									{
										OFFSET -3.379288 0.000000 -0.001055
										CHANNELS 6 Xposition Yposition Zposition Xrotation Yrotation Zrotation
										JOINT mixamorig:RightHandRing3
										{
											OFFSET -2.889687 -0.000015 0.000379
											CHANNELS 6 Xposition Yposition Zposition Xrotation Yrotation Zrotation
											JOINT mixamorig:RightHandRing4
											{
												OFFSET -2.638809 -0.000015 0.000941
												CHANNELS 6 Xposition Yposition Zposition Xrotation Yrotation Zrotation
												End Site
												{
													OFFSET -263.880371 0.000000 0.516020
												}
											}
										}
									}
								}
								JOINT mixamorig:RightHandPinky1
								{
									OFFSET -8.076683 -0.486710 -3.806280
									CHANNELS 6 Xposition Yposition Zposition Xrotation Yrotation Zrotation
									JOINT mixamorig:RightHandPinky2
									{
										OFFSET -3.600014 -0.000015 -0.003747
										CHANNELS 6 Xposition Yposition Zposition Xrotation Yrotation Zrotation
										JOINT mixamorig:RightHandPinky3
										{
											OFFSET -2.099983 0.000000 -0.005739
											CHANNELS 6 Xposition Yposition Zposition Xrotation Yrotation Zrotation
											JOINT mixamorig:RightHandPinky4
											{
												OFFSET -2.115768 -0.000031 -0.003680
												CHANNELS 6 Xposition Yposition Zposition Xrotation Yrotation Zrotation
												End Site
												{
													OFFSET -211.577087 0.000000 -0.350686
												}
											}
										}
									}
								}
							}
						}
					}
				}
				JOINT mixamorig:LeftShoulder
				{
					OFFSET 4.570447 11.014725 -2.160855
					CHANNELS 6 Xposition Yposition Zposition Xrotation Yrotation Zrotation
					JOINT mixamorig:LeftArm
					{
						OFFSET 10.592371 -0.524597 -2.232119
						CHANNELS 6 Xposition Yposition Zposition Xrotation Yrotation Zrotation
						JOINT mixamorig:LeftForeArm
						{
							OFFSET 27.841532 -0.000031 0.000026
							CHANNELS 6 Xposition Yposition Zposition Xrotation Yrotation Zrotation
							JOINT mixamorig:LeftHand
							{
								OFFSET 28.328846 -0.000061 0.000022
								CHANNELS 6 Xposition Yposition Zposition Xrotation Yrotation Zrotation
								JOINT mixamorig:LeftHandThumb1
								{
									OFFSET 2.466141 -1.576172 2.681732
									CHANNELS 6 Xposition Yposition Zposition Xrotation Yrotation Zrotation
									JOINT mixamorig:LeftHandThumb2
									{
										OFFSET 3.217812 -1.872070 1.916482
										CHANNELS 6 Xposition Yposition Zposition Xrotation Yrotation Zrotation
										JOINT mixamorig:LeftHandThumb3
										{
											OFFSET 2.656029 -1.528778 1.514513
											CHANNELS 6 Xposition Yposition Zposition Xrotation Yrotation Zrotation
											JOINT mixamorig:LeftHandThumb4
											{
												OFFSET 2.020889 -1.154053 1.115139
												CHANNELS 6 Xposition Yposition Zposition Xrotation Yrotation Zrotation
												End Site
												{
													OFFSET 190.885437 -115.081749 130.048782
												}
											}
										}
									}
								}
								JOINT mixamorig:LeftHandIndex1
								{
									OFFSET 9.109314 -0.518021 2.259871
									CHANNELS 6 Xposition Yposition Zposition Xrotation Yrotation Zrotation
									JOINT mixamorig:LeftHandIndex2
									{
										OFFSET 3.699989 0.000000 -0.000322
										CHANNELS 6 Xposition Yposition Zposition Xrotation Yrotation Zrotation
										JOINT mixamorig:LeftHandIndex3
										{
											OFFSET 2.850006 0.000000 0.000352
											CHANNELS 6 Xposition Yposition Zposition Xrotation Yrotation Zrotation
											JOINT mixamorig:LeftHandIndex4
											{
												OFFSET 2.774864 -0.000031 -0.000027
												CHANNELS 6 Xposition Yposition Zposition Xrotation Yrotation Zrotation
												End Site
												{
													OFFSET 277.486267 0.000000 -0.009857
												}
											}
										}
									}
								}
								JOINT mixamorig:LeftHandMiddle1
								{
									OFFSET 9.533394 0.000061 0.000044
									CHANNELS 6 Xposition Yposition Zposition Xrotation Yrotation Zrotation
									JOINT mixamorig:LeftHandMiddle2
									{
										OFFSET 3.699989 -0.000015 -0.000231
										CHANNELS 6 Xposition Yposition Zposition Xrotation Yrotation Zrotation
										JOINT mixamorig:LeftHandMiddle3
										{
											OFFSET 2.949997 -0.000015 -0.000059
											CHANNELS 6 Xposition Yposition Zposition Xrotation Yrotation Zrotation
											JOINT mixamorig:LeftHandMiddle4
											{
												OFFSET 2.952896 0.000031 0.000063
												CHANNELS 6 Xposition Yposition Zposition Xrotation Yrotation Zrotation
												End Site
												{
													OFFSET 295.289337 0.000000 0.022810
												}
											}
										}
									}
								}
								JOINT mixamorig:LeftHandRing1
								{
									OFFSET 9.104523 -0.042999 -1.865074
									CHANNELS 6 Xposition Yposition Zposition Xrotation Yrotation Zrotation
									JOINT mixamorig:LeftHandRing2
									{
										OFFSET 3.150009 -0.000031 0.000043
										CHANNELS 6 Xposition Yposition Zposition Xrotation Yrotation Zrotation
										JOINT mixamorig:LeftHandRing3
										{
											OFFSET 2.949982 -0.000015 0.000040
											CHANNELS 6 Xposition Yposition Zposition Xrotation Yrotation Zrotation
											JOINT mixamorig:LeftHandRing4
											{
												OFFSET 2.644348 0.000000 0.000057
												CHANNELS 6 Xposition Yposition Zposition Xrotation Yrotation Zrotation
												End Site
												{
													OFFSET 264.434631 0.000000 0.012105
												}
											}
										}
									}
								}
								JOINT mixamorig:LeftHandPinky1
								{
									OFFSET 8.077789 -0.486847 -3.806259
									CHANNELS 6 Xposition Yposition Zposition Xrotation Yrotation Zrotation
									JOINT mixamorig:LeftHandPinky2
									{
										OFFSET 3.599953 0.000031 0.014727
										CHANNELS 6 Xposition Yposition Zposition Xrotation Yrotation Zrotation
										JOINT mixamorig:LeftHandPinky3
										{
											OFFSET 2.100021 0.000015 0.007705
											CHANNELS 6 Xposition Yposition Zposition Xrotation Yrotation Zrotation
											JOINT mixamorig:LeftHandPinky4
											{
												OFFSET 2.125504 0.000031 0.007517
												CHANNELS 6 Xposition Yposition Zposition Xrotation Yrotation Zrotation
												End Site
												{
													OFFSET 212.550781 0.000000 0.625752
												}
											}
										}
									}
								}
							}
						}
					}
				}
			}
		}
	}
	JOINT mixamorig:RightUpLeg
	{
		OFFSET -8.207787 -6.751648 -1.599560
		CHANNELS 6 Xposition Yposition Zposition Xrotation Yrotation Zrotation
		JOINT mixamorig:RightLeg
		{
			OFFSET -0.000002 -44.370117 0.345942
			CHANNELS 6 Xposition Yposition Zposition Xrotation Yrotation Zrotation
			JOINT mixamorig:RightFoot
			{
				OFFSET 0.000003 -44.423679 -3.043532
				CHANNELS 6 Xposition Yposition Zposition Xrotation Yrotation Zrotation
				JOINT mixamorig:RightToeBase
				{
					OFFSET -0.000002 -8.728671 10.710558
					CHANNELS 6 Xposition Yposition Zposition Xrotation Yrotation Zrotation
					JOINT mixamorig:RightToe_End
					{
						OFFSET -0.000001 -0.000679 9.278119
						CHANNELS 6 Xposition Yposition Zposition Xrotation Yrotation Zrotation
						End Site
						{
							OFFSET 0.000000 -0.067690 927.812134
						}
					}
				}
			}
		}
	}
	JOINT mixamorig:LeftUpLeg
	{
		OFFSET 8.207793 -6.751686 -1.599556
		CHANNELS 6 Xposition Yposition Zposition Xrotation Yrotation Zrotation
		JOINT mixamorig:LeftLeg
		{
			OFFSET -0.000004 -44.370014 0.346954
			CHANNELS 6 Xposition Yposition Zposition Xrotation Yrotation Zrotation
			JOINT mixamorig:LeftFoot
			{
				OFFSET -0.000001 -44.423672 -3.044401
				CHANNELS 6 Xposition Yposition Zposition Xrotation Yrotation Zrotation
				JOINT mixamorig:LeftToeBase
				{
					OFFSET -0.000002 -8.728669 10.710558
					CHANNELS 6 Xposition Yposition Zposition Xrotation Yrotation Zrotation
					JOINT mixamorig:LeftToe_End
					{
						OFFSET -0.000003 -0.000679 9.278133
						CHANNELS 6 Xposition Yposition Zposition Xrotation Yrotation Zrotation
						End Site
						{
							OFFSET 0.000000 -0.068021 927.813477
						}
					}
				}
			}
		}
	}
}
MOTION
Frames: 3
Frame Time: 0.033333
0.000006 104.270477 1.554256 0.000010 0.000003 -0.000113 -0.000005 10.181587 0.131522 0.000001 -0.000003 0.000084 -0.000000 9.893967 -1.470711 0.000001 0.000000 -0.000000 -0.000000 9.220802 -1.370642 0.000000 -0.000000 -0.000000 0.000001 16.740433 -2.049030 0.000000 -0.000000 -0.000000 0.000000 9.617859 1.685014 0.000000 0.000000 0.000000 0.000002 22.037384 7.501101 0.000000 -0.000000 0.000000 -4.569968 11.014880 -2.160881 0.000008 0.000001 -0.000038 -10.592784 -0.524832 -2.231744 69.117587 66.414949 -48.537595 -27.841503 0.000015 0.000576 53.048580 105.928413 -66.967867 -28.328829 0.000006 0.000026 -0.000324 -0.000046 0.000007 -2.464439 -1.574154 2.682123 62.147181 -112.633993 110.143528 -3.214978 -1.873052 1.924456 102.901581 -144.031273 150.651447 -2.654660 -1.528288 1.512911 81.477900 -148.889627 139.147086 -2.018826 -1.151997 1.108070 -0.000005 -0.000001 0.000002 -9.108253 -0.517796 2.260417 36.898389 160.078119 -124.438192 -3.699768 0.000113 0.001819 -174.243959 21.442535 -209.661003 -2.850010 0.000032 0.000036 162.170083 23.584017 -466.154346 -2.772162 -0.000013 -0.000042 -0.000001 0.000004 0.000002 -9.532485 -0.000006 0.000526 -136.602431 18.650655 44.970556 -3.700077 0.000259 0.004164 135.989353 11.957682 -28.818590 -2.950016 0.000353 -0.001884 83.736719 2.736745 -2.447270 -2.946630 0.000000 -0.000156 0.000001 -0.000000 -0.000001 -9.103550 -0.042949 -1.864537 -148.552421 19.156348 61.844590 -3.379252 0.000366 -0.000711 121.703316 -3.353577 5.984429 -2.889646 0.000347 0.000452 69.102076 -12.973546 8.932791 -2.638797 0.000000 0.000939 0.000002 0.000002 0.000001 -8.076585 -0.486526 -3.805692 -161.956421 11.978746 66.741152 -3.599928 0.000351 -0.003438 119.143771 -8.234189 14.407287 -2.099929 0.000292 -0.005702 58.764270 -11.964451 6.837536 -2.115764 -0.000038 -0.003680 0.000001 0.000004 -0.000011 4.570446 11.014691 -2.160851 -0.000018 0.000010 -0.000021 10.592514 -0.524534 -2.232391 63.716000 -64.715544 42.982059 27.841764 -0.000083 -0.000108 228.840188 -75.961491 240.360477 28.328831 -0.000028 0.000029 0.000020 -0.000088 -0.000000 2.466118 -1.576177 2.681879 46.113114 118.007255 -98.361582 3.217789 -1.872025 1.916510 271.162608 49.733220 40.601769 2.656048 -1.528762 1.514605 267.778960 34.532712 38.296652 2.020895 -1.154074 1.115142 0.000002 0.000003 0.000004 9.109267 -0.517781 2.260096 245.223653 -11.237432 -17.471281 3.699898 0.000295 -0.000125 224.508332 -13.083319 -31.330887 2.849912 0.000353 0.000592 223.921550 -12.267492 -29.844378 2.774888 -0.000029 -0.000028 0.000002 0.000002 -0.000000 9.533265 0.000288 0.000265 53.054973 -153.220418 129.013708 3.700129 0.000063 -0.000212 153.039254 -28.732967 93.783272 2.950068 0.000241 -0.000191 113.676102 -6.536960 9.993696 2.952861 -0.000013 0.000054 -0.000002 -0.000001 -0.000001 9.104333 -0.042789 -1.864866 223.841883 -27.858677 -63.292966 3.150076 0.000262 -0.000036 119.647866 -12.346927 21.079332 2.949944 0.000240 -0.000136 87.824007 7.722233 -7.434001 2.644303 0.000030 0.000055 0.000002 0.000000 -0.000000 8.077605 -0.486584 -3.806067 394.681088 -159.786593 120.174009 3.600005 0.000396 0.014652 138.025993 -4.515497 12.961507 2.099975 0.000281 0.007516 455.789069 8.494064 -9.016880 2.125475 -0.000034 0.007520 -0.000002 0.000001 -0.000001 -8.207786 -6.751667 -1.599560 -0.077001 -0.000003 0.000080 -0.000002 -44.370110 0.345938 0.153719 -0.000000 -0.000000 0.000000 -44.423679 -3.043532 -0.076700 0.000000 -0.000002 -0.000006 -8.728667 10.710559 -0.000009 -0.000000 -0.000000 -0.000001 -0.000679 9.278123 0.000000 -0.000000 -0.000000 8.207792 -6.751710 -1.599556 -0.074518 -0.000003 0.000081 -0.000002 -44.370014 0.346960 0.148822 0.000002 0.000000 -0.000001 -44.423664 -3.044403 -0.074314 0.000000 -0.000002 -0.000004 -8.728671 10.710558 0.000007 -0.000000 -0.000000 0.000000 -0.000680 9.278137 -0.000000 0.000000 -0.000001 
0.000006 104.270477 1.554256 0.000010 0.000003 -0.000113 -0.000005 10.181587 0.131522 0.000001 -0.000003 0.000084 -0.000000 9.893967 -1.470711 0.000001 0.000000 -0.000000 -0.000000 9.220802 -1.370642 0.000000 -0.000000 -0.000000 0.000001 16.740433 -2.049030 0.000000 -0.000000 -0.000000 0.000000 9.617859 1.685014 0.000000 0.000000 0.000000 0.000002 22.037384 7.501101 0.000000 -0.000000 0.000000 -4.569968 11.014880 -2.160881 0.000008 0.000001 -0.000038 -10.592785 -0.524836 -2.231744 68.883318 66.127296 -48.115462 -27.841496 0.000006 0.000582 52.835905 106.569126 -67.337291 -28.328821 0.000006 0.000014 -0.000324 -0.000044 0.000007 -2.464416 -1.574148 2.682157 56.536898 -111.244602 104.300984 -3.215003 -1.873054 1.924466 101.399882 -147.252513 150.592789 -2.654657 -1.528270 1.512946 70.964388 -150.674834 133.578884 -2.018838 -1.152004 1.108065 0.000002 -0.000001 0.000004 -9.108297 -0.517864 2.260400 50.044953 155.406024 -129.911168 -3.699993 0.000019 0.001771 -205.692062 27.277954 -93.469404 -2.850131 0.000331 -0.000208 102.790850 18.901126 -383.551595 -2.772170 -0.000001 -0.000022 0.000000 0.000001 0.000002 -9.532490 -0.000020 0.000550 -140.316756 17.386561 46.062075 -3.700074 0.000248 0.004159 134.057516 9.854748 -22.770167 -2.949992 0.000328 -0.001896 79.315695 2.515972 -2.080582 -2.946590 -0.000002 -0.000151 -0.000003 0.000001 0.000001 -9.103539 -0.042956 -1.864539 -150.485979 17.011718 59.135129 -3.379236 0.000365 -0.000698 123.869183 -4.069370 7.598633 -2.889627 0.000354 0.000453 69.778544 -12.775446 8.906489 -2.638802 -0.000015 0.000945 0.000001 -0.000003 0.000000 -8.076613 -0.486554 -3.805689 -160.050771 10.914671 56.789335 -3.599916 0.000359 -0.003389 124.686237 -9.541773 18.555592 -2.099888 0.000296 -0.005698 61.190278 -14.146701 8.475554 -2.115770 -0.000044 -0.003678 0.000000 -0.000002 -0.000005 4.570446 11.014691 -2.160851 -0.000018 0.000010 -0.000021 10.592515 -0.524533 -2.232396 63.683495 -63.801384 42.270224 27.841768 -0.000051 -0.000104 229.141536 -75.999672 240.673846 28.328831 -0.000014 0.000021 0.000020 -0.000088 -0.000000 2.466120 -1.576168 2.681885 38.333494 121.051566 -92.869597 3.217786 -1.872032 1.916514 269.990684 49.396970 41.307007 2.656040 -1.528780 1.514610 263.691802 37.720543 42.023681 2.020887 -1.154054 1.115142 0.000004 0.000003 0.000004 9.109281 -0.517811 2.260121 254.558309 -9.791992 -12.830343 3.699933 0.000279 -0.000085 232.644248 -10.530916 -21.126142 2.849935 0.000297 0.000581 234.174402 -11.005592 -21.333529 2.774880 -0.000031 -0.000023 0.000000 0.000003 -0.000000 9.533257 0.000297 0.000269 52.536490 -155.586874 132.667655 3.700140 0.000095 -0.000201 158.540657 -21.739743 90.749739 2.950046 0.000256 -0.000195 113.121395 -2.246600 3.405381 2.952854 -0.000014 0.000067 0.000000 -0.000004 0.000002 9.104356 -0.042763 -1.864852 225.469421 -25.693538 -57.115633 3.150079 0.000288 -0.000046 128.204468 -8.993227 18.404636 2.949949 0.000243 -0.000154 88.313233 10.059101 -9.767520 2.644312 0.000015 0.000059 -0.000003 -0.000001 0.000002 8.077641 -0.486564 -3.806044 402.082117 -160.888876 132.254005 3.600003 0.000423 0.014676 147.631602 -2.283564 9.429648 2.099953 0.000291 0.007527 459.662224 9.894872 -11.320315 2.125515 -0.000017 0.007511 -0.000001 -0.000000 -0.000005 -8.207786 -6.751667 -1.599560 -0.077001 -0.000003 0.000080 -0.000002 -44.370110 0.345938 0.153719 -0.000000 -0.000000 0.000000 -44.423679 -3.043532 -0.076700 0.000000 -0.000002 -0.000006 -8.728667 10.710559 -0.000009 -0.000000 -0.000000 -0.000001 -0.000679 9.278123 0.000000 -0.000000 -0.000000 8.207792 -6.751710 -1.599556 -0.074518 -0.000003 0.000081 -0.000002 -44.370014 0.346960 0.148822 0.000002 0.000000 -0.000001 -44.423664 -3.044403 -0.074314 0.000000 -0.000002 -0.000004 -8.728671 10.710558 0.000007 -0.000000 -0.000000 0.000000 -0.000680 9.278137 -0.000000 0.000000 -0.000001 
0.000006 104.270477 1.554256 0.000010 0.000003 -0.000113 -0.000005 10.181587 0.131522 0.000001 -0.000003 0.000084 -0.000000 9.893967 -1.470711 0.000001 0.000000 -0.000000 -0.000000 9.220802 -1.370642 0.000000 -0.000000 -0.000000 0.000001 16.740433 -2.049030 0.000000 -0.000000 -0.000000 0.000000 9.617859 1.685014 0.000000 0.000000 0.000000 0.000002 22.037384 7.501101 0.000000 -0.000000 0.000000 -4.569968 11.014880 -2.160881 0.000008 0.000001 -0.000038 -10.592785 -0.524839 -2.231745 69.205116 66.104272 -48.353703 -27.841492 -0.000004 0.000570 53.542007 106.466366 -68.054092 -28.328821 0.000020 0.000023 -0.000324 -0.000045 0.000007 -2.464429 -1.574137 2.682141 63.440580 -110.921541 110.415172 -3.215001 -1.873028 1.924471 102.404582 -146.795901 151.028897 -2.654674 -1.528290 1.512918 73.916136 -151.346023 135.720189 -2.018826 -1.152019 1.108064 -0.000001 0.000002 0.000002 -9.108282 -0.517843 2.260403 47.665971 157.691883 -131.862116 -3.699852 -0.000038 0.001807 -189.742177 26.720986 -140.418786 -2.850125 0.000248 -0.000119 120.275902 22.810892 -398.717648 -2.772179 -0.000016 -0.000040 -0.000000 -0.000003 0.000003 -9.532499 -0.000020 0.000545 -137.059658 17.198737 42.198138 -3.700068 0.000254 0.004166 136.529198 10.223770 -25.056122 -2.950011 0.000353 -0.001885 82.004050 2.430246 -2.107364 -2.946614 0.000001 -0.000152 -0.000001 0.000001 -0.000001 -9.103550 -0.042966 -1.864540 -146.331585 17.701579 54.426127 -3.379218 0.000353 -0.000696 124.562829 -4.027220 7.630393 -2.889642 0.000375 0.000460 71.751950 -13.463132 9.736820 -2.638802 -0.000012 0.000938 0.000002 -0.000006 -0.000002 -8.076629 -0.486562 -3.805685 -156.826416 10.782997 49.180596 -3.599924 0.000371 -0.003411 123.947798 -10.417493 19.875065 -2.099890 0.000299 -0.005705 62.292070 -14.587597 8.930190 -2.115768 -0.000041 -0.003680 -0.000000 -0.000002 -0.000003 4.570446 11.014691 -2.160851 -0.000018 0.000010 -0.000021 10.592519 -0.524537 -2.232391 63.579533 -63.684609 42.104855 27.841743 -0.000039 -0.000109 229.364145 -75.740944 241.163816 28.328833 0.000002 0.000022 0.000021 -0.000089 -0.000000 2.466109 -1.576189 2.681883 48.313333 117.575136 -100.149151 3.217797 -1.872032 1.916519 272.001902 49.584383 39.969598 2.656044 -1.528770 1.514611 267.414146 36.262810 39.148465 2.020872 -1.154055 1.115142 0.000002 0.000007 0.000004 9.109262 -0.517761 2.260099 240.971642 -11.338799 -19.130766 3.699860 0.000331 -0.000127 221.297378 -13.884000 -35.831746 2.849899 0.000346 0.000551 218.641991 -13.144661 -36.380887 2.774879 -0.000030 -0.000019 0.000002 0.000000 0.000000 9.533262 0.000303 0.000268 49.235583 -156.351308 130.894415 3.700031 -0.000006 -0.000158 167.912701 -25.809280 130.384678 2.950095 0.000281 -0.000119 134.582252 -10.381408 24.501835 2.952879 -0.000032 0.000063 -0.000001 0.000003 0.000001 9.104348 -0.042780 -1.864883 220.363445 -23.809599 -59.674625 3.150093 0.000269 -0.000014 135.667009 -13.824853 33.147506 2.949975 0.000262 -0.000115 97.746817 5.254036 -6.014338 2.644325 0.000015 0.000056 -0.000000 -0.000000 0.000000 8.077623 -0.486564 -3.806064 397.833657 -163.096243 132.554123 3.600000 0.000381 0.014687 148.852539 -3.450279 14.024087 2.099948 0.000310 0.007511 464.108731 7.809559 -9.562479 2.125506 -0.000005 0.007524 0.000001 -0.000003 -0.000001 -8.207786 -6.751667 -1.599560 -0.077001 -0.000003 0.000080 -0.000002 -44.370110 0.345938 0.153719 -0.000000 -0.000000 0.000000 -44.423679 -3.043532 -0.076700 0.000000 -0.000002 -0.000006 -8.728667 10.710559 -0.000009 -0.000000 -0.000000 -0.000001 -0.000679 9.278123 0.000000 -0.000000 -0.000000 8.207792 -6.751710 -1.599556 -0.074518 -0.000003 0.000081 -0.000002 -44.370014 0.346960 0.148822 0.000002 0.000000 -0.000001 -44.423664 -3.044403 -0.074314 0.000000 -0.000002 -0.000004 -8.728671 10.710558 0.000007 -0.000000 -0.000000 0.000000 -0.000680 9.278137 -0.000000 0.000000 -0.000001 
